<?xml version="1.0" encoding="UTF-8" standalone="no"?><!DOCTYPE svg PUBLIC "-//W3C//DTD SVG 1.1//EN" "http://www.w3.org/Graphics/SVG/1.1/DTD/svg11.dtd"><svg width="100%" height="100%" viewBox="0 0 625 625" version="1.1" xmlns="http://www.w3.org/2000/svg" xmlns:xlink="http://www.w3.org/1999/xlink" xml:space="preserve" xmlns:serif="http://www.serif.com/" style="fill-rule:evenodd;clip-rule:evenodd;stroke-linejoin:round;stroke-miterlimit:2;"><rect x="0" y="0" width="625" height="625" style="fill:none;"/><path d="M593.51,434.758l-0,112.953c-0,9.699 -7.864,17.563 -17.563,17.563l-140.506,0c-9.699,0 -17.563,-7.864 -17.563,-17.563l0,-17.563l-93.666,-70.253l-188.332,0c-18.079,0 -34.512,-14.753 -35.083,-32.821c-0.296,-39.846 31.636,-72.558 70.209,-72.558l115.148,0c15.116,0 28.541,-9.671 33.327,-24.017l11.712,-35.127c8.639,-22.744 -8.375,-46.235 -32.305,-46.235l-198.135,0c-38.584,0 -70.504,-32.711 -69.226,-72.557c0.579,-18.068 17.009,-32.822 34.1,-32.822l297.696,0c28.825,0 55.807,14.139 72.217,37.838l141.384,203.184c11.097,15.62 16.586,33.074 16.586,49.978Z" style="fill:none;fill-rule:nonzero;stroke:url(#_Radial1);stroke-width:16.67px;"/><defs><radialGradient id="_Radial1" cx="0" cy="0" r="1" gradientUnits="userSpaceOnUse" gradientTransform="matrix(-505.173,-167.936,125.952,-378.881,574.53,336.26)"><stop offset="0" style="stop-color:#f200ff;stop-opacity:1"/><stop offset="0.57" style="stop-color:#c22cff;stop-opacity:1"/><stop offset="1" style="stop-color:#00daff;stop-opacity:1"/></radialGradient></defs></svg>