<?xml version="1.0" encoding="UTF-8" standalone="no"?><!DOCTYPE svg PUBLIC "-//W3C//DTD SVG 1.1//EN" "http://www.w3.org/Graphics/SVG/1.1/DTD/svg11.dtd"><svg width="100%" height="100%" viewBox="0 0 625 625" version="1.1" xmlns="http://www.w3.org/2000/svg" xmlns:xlink="http://www.w3.org/1999/xlink" xml:space="preserve" xmlns:serif="http://www.serif.com/" style="fill-rule:evenodd;clip-rule:evenodd;stroke-linejoin:round;stroke-miterlimit:2;"><rect x="0" y="0" width="625" height="625" style="fill:none;"/><path d="M551.544,176.861l0,220.413c0,102.842 -83.661,186.504 -186.503,186.504l-39.971,-0c-56.608,-0 -109.889,-22.041 -149.839,-62.076l-119.85,-119.85c-8.344,-8.287 -12.483,-19.201 -12.483,-30.01c0,-22.571 18.174,-42.387 42.387,-42.387c10.841,-0 21.692,4.139 29.968,12.419l63.284,63.242l0,-296.074c0,-18.725 15.185,-33.91 33.91,-33.91c18.725,-0 33.91,15.185 33.91,33.91l0.077,186.503c0.029,9.325 7.552,16.955 16.878,16.955c9.325,0 17.029,-7.592 17.029,-16.955l-0.075,-220.413c0,-18.725 15.186,-33.91 33.91,-33.91c18.725,0 33.91,15.185 33.91,33.91l0.051,220.413c0,9.363 7.536,16.955 16.902,16.955c9.367,0 16.957,-7.63 16.957,-16.955l-0,-186.503c-0,-18.725 15.185,-33.91 33.909,-33.91c18.725,-0 33.91,15.185 33.91,33.91l0.077,186.503c0,9.363 7.515,16.955 16.881,16.955c9.367,0 16.952,-7.63 16.952,-16.955l-0,-118.684c-0,-18.724 15.185,-33.91 33.91,-33.91c18.724,0 33.909,15.154 33.909,33.91Z" style="fill:none;fill-rule:nonzero;stroke:url(#_Radial1);stroke-width:16.67px;"/><defs><radialGradient id="_Radial1" cx="0" cy="0" r="1" gradientUnits="userSpaceOnUse" gradientTransform="matrix(-256.384,-416.133,416.133,-256.384,499.363,472.373)"><stop offset="0" style="stop-color:#f200ff;stop-opacity:1"/><stop offset="0.57" style="stop-color:#c22cff;stop-opacity:1"/><stop offset="1" style="stop-color:#00daff;stop-opacity:1"/></radialGradient></defs></svg>