<?xml version="1.0" encoding="UTF-8" standalone="no"?><!DOCTYPE svg PUBLIC "-//W3C//DTD SVG 1.1//EN" "http://www.w3.org/Graphics/SVG/1.1/DTD/svg11.dtd"><svg width="100%" height="100%" viewBox="0 0 625 625" version="1.1" xmlns="http://www.w3.org/2000/svg" xmlns:xlink="http://www.w3.org/1999/xlink" xml:space="preserve" xmlns:serif="http://www.serif.com/" style="fill-rule:evenodd;clip-rule:evenodd;stroke-linejoin:round;stroke-miterlimit:2;"><rect x="0" y="0" width="625" height="625" style="fill:none;"/><path d="M556.528,237.414l0,141.254c0,58.427 -29.799,109.931 -75.085,140.317l-0,80.834l-300.343,-0l0,-80.834l-62.403,-45.368c-31.454,-22.913 -50.225,-59.869 -50.225,-98.703l-0,-81.186c-0,-17.106 7.772,-33.296 20.062,-43.972l36.252,-28.181l-0,53.381c-0,10.325 8.4,18.772 18.771,18.772c10.371,-0 18.772,-8.405 18.772,-18.772l-0,-150.171c-0,-31.114 25.224,-56.314 56.314,-56.314c29.776,-0 53.921,23.194 55.927,52.478c10.008,-9.187 23.265,-14.935 37.93,-14.935c31.09,-0 56.314,25.2 56.314,56.314l0,6.489c10.09,-15.206 27.336,-25.261 46.929,-25.261c27.535,0 50.378,19.793 55.27,45.92c8.553,-5.209 18.525,-8.377 29.201,-8.377c31.09,0 56.314,25.224 56.314,56.315Z" style="fill:none;fill-rule:nonzero;stroke:url(#_Radial1);stroke-width:16.67px;"/><defs><radialGradient id="_Radial1" cx="0" cy="0" r="1" gradientUnits="userSpaceOnUse" gradientTransform="matrix(312.5,-139.264,151.617,340.219,324.788,450.198)"><stop offset="0" style="stop-color:#f200ff;stop-opacity:1"/><stop offset="0.57" style="stop-color:#c22cff;stop-opacity:1"/><stop offset="1" style="stop-color:#00daff;stop-opacity:1"/></radialGradient></defs></svg>