<?xml version="1.0" encoding="UTF-8" standalone="no"?><!DOCTYPE svg PUBLIC "-//W3C//DTD SVG 1.1//EN" "http://www.w3.org/Graphics/SVG/1.1/DTD/svg11.dtd"><svg width="100%" height="100%" viewBox="0 0 625 625" version="1.1" xmlns="http://www.w3.org/2000/svg" xmlns:xlink="http://www.w3.org/1999/xlink" xml:space="preserve" xmlns:serif="http://www.serif.com/" style="fill-rule:evenodd;clip-rule:evenodd;stroke-linejoin:round;stroke-miterlimit:2;"><rect x="0" y="0" width="625" height="625" style="fill:none;"/><path d="M562.546,400.366l-58.987,104.052c-42.634,75.206 -137.434,101.41 -211.797,59.254l-74.925,-42.475c-24.838,-14.08 -33.551,-45.602 -19.476,-70.43c4.859,-8.572 11.876,-15.061 19.901,-19.521c-18.163,-16.509 -24.115,-42.902 -11.639,-64.911c8.878,-15.66 24.69,-24.863 40.915,-25.194l-177.498,-100.623c-20.689,-11.728 -27.959,-38.002 -16.23,-58.69c11.728,-20.689 37.533,-27.111 58.222,-15.383l214.941,121.85l-160.314,-174.552c-13.12,-14.121 -15.03,-34.633 -5.951,-50.648c2.109,-3.721 4.814,-7.189 8.11,-10.266c14.074,-13.146 34.63,-15.069 50.533,-6.054c3.746,2.124 7.236,4.855 10.32,8.188l215.181,229.924c1.22,1.361 2.612,2.398 4.111,3.248c6.379,3.616 14.61,2.868 20.263,-2.411c1.31,-1.223 2.385,-2.602 3.225,-4.084c3.614,-6.375 2.856,-14.617 -2.421,-20.245l-55.902,-59.745l22.86,-9.131c14.528,-5.814 30.972,-4.697 44.646,3.055l44.955,25.484c9.731,5.517 17.398,14.02 21.881,24.275l20.687,47.357c13.562,31.09 12.491,66.446 -1.177,97.148c-1.132,3.613 -2.522,7.156 -4.434,10.528Z" style="fill:none;fill-rule:nonzero;stroke:url(#_Radial1);stroke-width:16.67px;"/><defs><radialGradient id="_Radial1" cx="0" cy="0" r="1" gradientUnits="userSpaceOnUse" gradientTransform="matrix(164.877,-279.761,286.068,168.594,328.884,369.844)"><stop offset="0" style="stop-color:#f200ff;stop-opacity:1"/><stop offset="0.59" style="stop-color:#c529ff;stop-opacity:1"/><stop offset="0.8" style="stop-color:#6282ff;stop-opacity:1"/><stop offset="1" style="stop-color:#00daff;stop-opacity:1"/></radialGradient></defs></svg>