<?xml version="1.0" encoding="UTF-8" standalone="no"?><!DOCTYPE svg PUBLIC "-//W3C//DTD SVG 1.1//EN" "http://www.w3.org/Graphics/SVG/1.1/DTD/svg11.dtd"><svg width="100%" height="100%" viewBox="0 0 625 625" version="1.1" xmlns="http://www.w3.org/2000/svg" xmlns:xlink="http://www.w3.org/1999/xlink" xml:space="preserve" xmlns:serif="http://www.serif.com/" style="fill-rule:evenodd;clip-rule:evenodd;stroke-linejoin:round;stroke-miterlimit:2;"><rect x="0" y="0" width="625" height="625" style="fill:none;"/><path d="M583.661,177.498c-0,-9.536 -6.48,-34.524 -33.571,-34.524c-14.941,-0 -28.632,9.88 -32.765,24.966l-36.411,132.565c-1.782,6.528 -7.709,11.053 -14.475,11.053c-8.457,-0 -15.005,-6.907 -15.005,-14.974c0,-1.043 0.11,-2.105 0.339,-3.174l37.841,-176.543c0.555,-2.587 0.824,-5.204 0.824,-7.801c0,-14.719 -10.273,-34.821 -33.591,-34.821c-15.673,0 -29.799,10.872 -33.211,26.799l-40.024,186.715c-2.974,13.882 -15.238,23.801 -29.427,23.801c-13.818,-0 -25.856,-9.401 -29.205,-22.805l-55.219,-220.942c-4.003,-14.721 -17.885,-26.591 -33.674,-26.591c-28.304,0 -33.677,27.244 -33.677,33.889c0,2.722 0.33,5.489 1.019,8.25l53.567,214.267c0.246,0.985 0.364,1.967 0.364,2.929c-0,6.412 -5.205,11.942 -11.975,11.942c-5.188,0 -9.785,-3.342 -11.381,-8.278l-49.524,-152.897c-4.768,-15.683 -18.438,-25.305 -33.273,-25.305c-16.616,-0 -33.518,13.595 -33.518,33.878c0,3.468 0.536,6.996 1.664,10.474l74.103,228.572c0.308,0.948 0.449,1.871 0.449,2.753c0,4.791 -4.175,8.387 -8.603,8.387c-2.043,0 -4.139,-0.765 -5.906,-2.53l-64.006,-64.004c-8.834,-8.833 -20.802,-13.638 -32.649,-13.638c-24.966,0 -41.402,20.865 -41.402,41.91c0,10.841 4.139,21.692 12.42,29.968l129.81,129.81c33.444,33.423 78.692,52.179 125.953,52.179l54.023,-0c24.902,-0 114.869,-15.44 140.407,-109.147l78.373,-287.384c0.912,-3.179 1.336,-6.464 1.336,-9.749Z" style="fill:none;fill-rule:nonzero;stroke:url(#_Radial1);stroke-width:16.67px;"/><defs><radialGradient id="_Radial1" cx="0" cy="0" r="1" gradientUnits="userSpaceOnUse" gradientTransform="matrix(192.359,-393.87,394.041,192.442,435.38,464.052)"><stop offset="0" style="stop-color:#f200ff;stop-opacity:1"/><stop offset="0.57" style="stop-color:#c22cff;stop-opacity:1"/><stop offset="1" style="stop-color:#00daff;stop-opacity:1"/></radialGradient></defs></svg>